<?xml version="1.0" encoding="utf-8"?>
<!-- Svg Vector Icons : http://www.onlinewebfonts.com/icon -->
<!DOCTYPE svg PUBLIC "-//W3C//DTD SVG 1.1//EN" "http://www.w3.org/Graphics/SVG/1.1/DTD/svg11.dtd">
<svg version="1.1" xmlns="http://www.w3.org/2000/svg" xmlns:xlink="http://www.w3.org/1999/xlink" x="0px" y="0px" viewBox="0 0 1000 1000" enable-background="new 0 0 1000 1000" xml:space="preserve">
<metadata> Svg Vector Icons : http://www.onlinewebfonts.com/icon </metadata>
<g><path d="M653.1,867.5V745c0-16.9-13.7-30.6-30.6-30.6H40.6C23.7,714.4,10,728.1,10,745v122.5c0,16.9,13.7,30.6,30.6,30.6h581.9C639.4,898.1,653.1,884.4,653.1,867.5z M591.9,836.9H71.3v-61.3h520.6V836.9z"/><path d="M101.9,622.5c-16.9,0-30.6,13.7-30.6,30.6s13.7,30.6,30.6,30.6h459.4c16.9,0,30.6-13.7,30.6-30.6s-13.7-30.6-30.6-30.6H101.9z"/><path d="M40.6,591.9h581.9c16.9,0,30.6-13.7,30.6-30.6c0-2.1-3.7-214.4-321.6-214.4S10,559.1,10,561.2C10,578.2,23.7,591.9,40.6,591.9z M331.6,408.1c184.8,0,238.4,77.6,254,122.5H77.6C93.1,485.7,146.8,408.1,331.6,408.1z"/><path d="M959.4,285.6H801.6l-26.4-158.2c-2.8-16.7-18.6-27.9-35.2-25.2c-16.7,2.8-28,18.6-25.2,35.2l24.7,148.1h-25.1c-8.4,0-16.5,3.5-22.2,9.6c-5.8,6.1-8.8,14.3-8.3,22.7l30.6,551.3c0.9,16.2,14.3,28.9,30.6,28.9h183.8c16.3,0,29.7-12.7,30.6-28.9L990,317.9c0.5-8.4-2.6-16.6-8.3-22.7C975.8,289.1,967.8,285.6,959.4,285.6z M899.8,836.9H774l-27.2-490h28.8c0,0,0,0,0.1,0c0,0,0.1,0,0.1,0H927L899.8,836.9z"/></g>
</svg>