<?xml version="1.0" encoding="iso-8859-1"?>
<!-- Generator: Adobe Illustrator 19.0.0, SVG Export Plug-In . SVG Version: 6.00 Build 0)  -->
<svg version="1.1" id="Layer_1" xmlns="http://www.w3.org/2000/svg" xmlns:xlink="http://www.w3.org/1999/xlink" x="0px" y="0px"
	 viewBox="0 0 494.4 494.4" style="enable-background:new 0 0 494.4 494.4;" xml:space="preserve">
<path style="fill:#03263A;" d="M427.2,479.2c0,8.8-7.2,15.2-15.2,15.2H82.4c-8.8,0-15.2-7.2-15.2-15.2v-464C67.2,6.4,74.4,0,82.4,0
	h328.8c8.8,0,15.2,7.2,15.2,15.2v464H427.2z"/>
<path style="fill:#071823;" d="M67.2,15.2C67.2,6.4,74.4,0,82.4,0h328.8c8.8,0,15.2,7.2,15.2,15.2v464c0,8.8-7.2,15.2-15.2,15.2"/>
<rect x="196" style="fill:#2A3B42;" width="21.6" height="494.4"/>
<rect x="204" style="fill:#3F545E;" width="13.6" height="494.4"/>
<g>
	<path style="fill:#2D434C;" d="M178.4,137.6c0,3.2-2.4,5.6-5.6,5.6h-21.6c-3.2,0-5.6-2.4-5.6-5.6l0,0c0-3.2,2.4-5.6,5.6-5.6h21.6
		C176,132,178.4,134.4,178.4,137.6L178.4,137.6z"/>
	<path style="fill:#2D434C;" d="M178.4,352.8c0,3.2-2.4,5.6-5.6,5.6h-21.6c-3.2,0-5.6-2.4-5.6-5.6l0,0c0-3.2,2.4-5.6,5.6-5.6h21.6
		C176,347.2,178.4,349.6,178.4,352.8L178.4,352.8z"/>
</g>
<path style="fill:#3F545E;" d="M169.6,384.8c0,4-3.2,8-8,8l0,0c-4,0-8-3.2-8-8v-280c0-4,3.2-8,8-8l0,0c4,0,8,3.2,8,8V384.8z"/>
<path style="fill:#556D77;" d="M159.2,97.6c-3.2,0.8-4.8,4-4.8,7.2v280c0,3.2,2.4,6.4,4.8,7.2c3.2-0.8,4.8-4,4.8-7.2v-280
	C164,101.6,161.6,99.2,159.2,97.6z"/>
<g>
	<path style="fill:#2D434C;" d="M268,137.6c0,3.2-2.4,5.6-5.6,5.6h-21.6c-3.2,0-5.6-2.4-5.6-5.6l0,0c0-3.2,2.4-5.6,5.6-5.6h22.4
		C265.6,132,268,134.4,268,137.6L268,137.6z"/>
	<path style="fill:#2D434C;" d="M268,352.8c0,3.2-2.4,5.6-5.6,5.6h-21.6c-3.2,0-5.6-2.4-5.6-5.6l0,0c0-3.2,2.4-5.6,5.6-5.6h22.4
		C265.6,347.2,268,349.6,268,352.8L268,352.8z"/>
</g>
<path style="fill:#3F545E;" d="M260,384.8c0,4-3.2,8-8,8l0,0c-4,0-8-3.2-8-8v-280c0-4,3.2-8,8-8l0,0c4,0,8,3.2,8,8V384.8z"/>
<path style="fill:#556D77;" d="M248.8,97.6c-3.2,0.8-4.8,4-4.8,7.2v280c0,3.2,1.6,6.4,4.8,7.2c3.2-0.8,4.8-4,4.8-7.2v-280
	C253.6,101.6,252,99.2,248.8,97.6z"/>
<path style="fill:#03263A;" d="M383.2,296.8c0,8.8-7.2,15.2-15.2,15.2h-60c-8.8,0-15.2-7.2-15.2-15.2V194.4
	c0-8.8,7.2-10.4,15.2-10.4h59.2c8.8,0,15.2,2.4,15.2,10.4v102.4H383.2z"/>
<path style="fill:#2A3B42;" d="M383.2,293.6c0,8.8-7.2,15.2-15.2,15.2h-60c-8.8,0-15.2-7.2-15.2-15.2V191.2
	c0-8.8,7.2-10.4,15.2-10.4h59.2c8.8,0,15.2,2.4,15.2,10.4v102.4H383.2z"/>
<g>
	<path style="fill:#1F2E33;" d="M367.2,180.8c8.8,0,15.2,2.4,15.2,10.4v102.4c0,8.8-7.2,15.2-15.2,15.2"/>
	<path style="fill:#1F2E33;" d="M307.2,308.8c-8.8,0-15.2-7.2-15.2-15.2V191.2c0-8.8,7.2-10.4,15.2-10.4"/>
</g>
<path style="fill:#03263A;" d="M341.6,236.8c0,2.4-1.6,4-4,4l0,0c-2.4,0-4-1.6-4-4v-29.6c0-2.4,1.6-4,4-4l0,0c2.4,0,4,1.6,4,4V236.8
	z"/>
<path style="fill:#071823;" d="M337.6,203.2c-2.4,0-4,1.6-4,4v21.6h8v-21.6C341.6,204.8,340,203.2,337.6,203.2z"/>
<path style="fill:#6E8E99;" d="M367.2,183.2h-60c-8.8,0-15.2,2.4-15.2,10.4v28h91.2v-28C383.2,185.6,376,183.2,367.2,183.2z"/>
<path style="fill:#5E7A84;" d="M367.2,178.4h-60c-8.8,0-15.2,2.4-15.2,10.4v28h91.2v-28C383.2,180.8,376,178.4,367.2,178.4z"/>
<path style="fill:#556D77;" d="M367.2,180.8h-60c-8.8,0-15.2,2.4-15.2,10.4v28h91.2v-28C383.2,182.4,376,180.8,367.2,180.8z"/>
<path style="fill:#23353A;" d="M382.4,297.6c-4.8-4-12.8-7.2-18.4-7.2h-53.6c-5.6,0-12.8,2.4-18.4,7.2c1.6,6.4,8,12,15.2,12h60
	C374.4,308.8,380.8,304,382.4,297.6z"/>
<g>
	<path style="fill:#628589;" d="M300,196.8c-0.8,0-0.8-0.8-0.8-0.8l0,0c0-0.8,0.8-0.8,0.8-0.8h7.2c0.8,0,0.8,0,0.8,0.8l0,0
		c0,0.8,0,0.8-0.8,0.8H300z"/>
	<path style="fill:#628589;" d="M300,203.2c-0.8,0-0.8-0.8-0.8-0.8l0,0c0-0.8,0.8-0.8,0.8-0.8h7.2c0.8,0,0.8,0,0.8,0.8l0,0
		c0,0.8,0,0.8-0.8,0.8H300z"/>
	<path style="fill:#628589;" d="M300,210.4c-0.8,0-0.8,0-0.8-0.8l0,0c0-0.8,0.8-0.8,0.8-0.8h7.2c0.8,0,0.8,0,0.8,0.8l0,0
		c0,0.8,0,0.8-0.8,0.8H300z"/>
</g>
<polygon style="fill:#C4C4C4;" points="348,308 326.4,308 315.2,249.6 360,249.6 "/>
<polygon style="fill:#6CBCBC;" points="318.4,266.4 326.4,308 348,308 356.8,266.4 "/>
<polygon style="fill:#59ADAB;" points="336.8,266.4 336.8,308 348,308 356.8,266.4 "/>
<g>
</g>
<g>
</g>
<g>
</g>
<g>
</g>
<g>
</g>
<g>
</g>
<g>
</g>
<g>
</g>
<g>
</g>
<g>
</g>
<g>
</g>
<g>
</g>
<g>
</g>
<g>
</g>
<g>
</g>
</svg>
